# xmcd CD database file
#
# Track frame offsets:
#	150
#	10148
#	22462
#	32437
#	48137
#	62833
#	75006
#	85849
#	97415
#	110511
#	126446
#	136194
#	145785
#	162603
#	175231
#	187688
#	203562
#	216144
#	228924
#	240133
#	254293
#
# Disc length: 3547 seconds
#
# Revision: 0
# Processed by: cddbd v1.5.2PL0 Copyright (c) Steve Scherf et al.
# Submitted via: CDex 1.70beta2
#
DISCID=100dd915
DTITLE=Various Artist - 007 - On The Road Again
DYEAR=1987
DGENRE=Country
TTITLE0=Dennis Olsen - Truck Drivin Outlaw
TTITLE1=Del Reeves - Girl On The Billboard
TTITLE2=Dave Dudley - Truck Drivin Son Of A Gun
TTITLE3=Steve Brown - C.B. Savage
TTITLE4=Earl Ricks - Highway 40 Blues
TTITLE5=Earl Ricks - Truck Drivers Prayer
TTITLE6=David Blue Boy - Tennessee Is Home To Me
TTITLE7=Earl Ricks - That's Truckdriving
TTITLE8=Red Simpson - Roll Truck Roll
TTITLE9=George Bennet - Mystery Maiden
TTITLE10=David Blue Boy - Truckers Way Of Life
TTITLE11=Groover Spooks - Hold Everything
TTITLE12=John McRoad And The Texas Liner - Roll On
TTITLE13=George Bennet - It's Hard To Love A Man
TTITLE14=Mel McBrown - Freightliner Fever
TTITLE15=Red Simpson - I'm A Truck
TTITLE16=La Costa Tucker - He Took Me For A Ride
TTITLE17=Don King - I Didn't Jump The Fence
TTITLE18=John McRoad &The Texas Liner - On The Road Again
TTITLE19=John McRoad &The Texas Liner - Day Time Friends
TTITLE20=John McRoad &The Texas Liner - Ode To 10 - 33
EXTD=YEAR: 1987
EXTT0=
EXTT1=
EXTT2=
EXTT3=
EXTT4=
EXTT5=
EXTT6=
EXTT7=
EXTT8=
EXTT9=
EXTT10=
EXTT11=
EXTT12=
EXTT13=
EXTT14=
EXTT15=
EXTT16=
EXTT17=
EXTT18=
EXTT19=
EXTT20=
PLAYORDER=
